<svg xmlns="http://www.w3.org/2000/svg" width="36" height="36" viewBox="0 0 36 36"><defs><style>.a{fill:#000000;}</style></defs><path class="a" d="M18,0A18,18,0,1,0,36,18,17.99,17.99,0,0,0,18,0Zm0,33.188A15.188,15.188,0,1,1,33.188,18,15.179,15.179,0,0,1,18,33.188Z"/><g transform="translate(16.594 9.062)"><path class="a" d="M237.406,128.877A1.406,1.406,0,0,0,236,130.283v9.056a1.406,1.406,0,0,0,2.813,0v-9.056A1.406,1.406,0,0,0,237.406,128.877Z" transform="translate(-236 -128.877)"/></g><g transform="translate(16.102 22.652)"><circle class="a" cx="1.898" cy="1.898" r="1.898"/></g></svg>
